<svg xmlns="http://www.w3.org/2000/svg" viewBox="0 0 310 357.96"><defs><style>.a{fill:#191a23;}.b{fill:#fff;}.c{fill:#27aae1;}</style></defs><title>nodeconf_bplog_color_2017</title><rect class="a" x="144.17" y="199.78" width="6.23" height="2.29"/><rect class="a" x="184.63" y="199.78" width="6.23" height="2.29"/><path class="a" d="M119.52,293.69l-28.38-1.21h-.23l-.1,0H90.7a1,1,0,0,0-.34,0H61.58l4.33,2.5H90.67l0,10A3.64,3.64,0,0,0,94,308.68a8.45,8.45,0,0,1,6.15,6.05l2.78,1.6s0,0,0-.07a11,11,0,0,0-8.3-10l-.07,0c-1.28-.29-1.34-.62-1.34-1.24v-9.63L119,299.44v12.47a3.78,3.78,0,0,1-3.29,3.73,19.79,19.79,0,0,0-7.56,3.73l2.35,1.36a17.28,17.28,0,0,1,5.8-2.66,6.19,6.19,0,0,0,5.2-6.16V299.5h9.64v17.76a5.23,5.23,0,0,1-4.12,3.89,19.89,19.89,0,0,0-8.27,4.34l2.31,1.33a17.42,17.42,0,0,1,6.62-3.26,7.63,7.63,0,0,0,5.93-5.9,1.24,1.24,0,0,0,0-.25V304.81h4.07v4.48a.47.47,0,0,0,0,.11.49.49,0,0,0,0,.11.75.75,0,0,0,.75.75h11.39v4.66a.75.75,0,0,0,1.5,0v-4.66h15.49v4h-11a.75.75,0,0,0,0,1.5h24.28a.75.75,0,0,0,0-1.5H168.36v-4H183v4.66a.75.75,0,0,0,1.5,0v-4.66h11.39a.75.75,0,0,0,.75-.75.46.46,0,0,0,0-.11.49.49,0,0,0,0-.11v-4.48h6.5v11.9a11.19,11.19,0,0,0,.14,1.8l2.37-1.37c0-.14,0-.28,0-.43V299.5h30.57l4.33-2.5h-121l-7-1.11,6.91.3H242l4.33-2.5H119.52Zm34.4,15.08H139.23v-4h14.69Zm8.09,0h-6.59v-4H162Zm17,0H163.51v-4H179Zm16.19,0H180.5v-4h14.69Zm1.24.56h0Zm-3.79-9.83h10.54v3.81H192.64Zm-8.09,0h6.59v3.81h-6.59Zm-8.09,0H183v3.81h-6.59Zm-8.09,0H175v3.81h-6.59Zm-17,0h15.49v3.81H151.37Zm-8.09,0h6.59v3.81h-6.59Zm-9.62,0h8.12v3.81h-8.12Z"/><rect class="a" x="176.54" y="199.78" width="6.23" height="2.29"/><rect class="a" x="168.45" y="199.78" width="6.23" height="2.29"/><path class="a" d="M204.07,236.73v-31l3.58-7.43h0a1.25,1.25,0,0,0,1.25-1.25v-4.86a1.25,1.25,0,0,0-1.25-1.25h-2.8v-8.46a1.25,1.25,0,0,0-1.25-1.25H121.17a1.25,1.25,0,0,0-1.25,1.25v8.46H117a1.25,1.25,0,0,0-1.25,1.25v4.91a1.33,1.33,0,0,0,.08.39l0,.05,3.94,7.89c-.58,28.62-9.64,57.26-22.56,71.28l-.33.35-.2-.22a38.36,38.36,0,0,1-4.35-7.68V245.82L94,241.11a1.2,1.2,0,0,0,.06-.45v-4a1.25,1.25,0,0,0-1.25-1.25h-.37V231a1.25,1.25,0,0,0-1.25-1.25H51.49A1.25,1.25,0,0,0,50.24,231v4.42H49.15a1.25,1.25,0,0,0-1.25,1.25v4.09a1.27,1.27,0,0,0,.08.39l2.25,4.74v6.62c-2.29,12.06-6.13,21.29-11.17,27l2.21,1.28c3.65-4.26,6.65-10.19,9-17.72v22.89l6.48,3.74H253.28l4.33-2.5H232.09l-.12,0a55.66,55.66,0,0,1-15.2-3.9c-1.65-.59-3.32-1.23-5-1.89-22-8.89-41.13-23.34-53.95-40.71a1.22,1.22,0,0,0-.34-.47,85.93,85.93,0,0,1-12.31-23.41l-.18-.55a1.6,1.6,0,0,1,1.31-1.85l1.06,0c.25.82.53,1.67.83,2.52a83.07,83.07,0,0,0,11.21,21c12.62,17.49,31.6,32,53.43,40.82a126,126,0,0,0,24.5,7,93,93,0,0,0,20.47,1.4l5.84-3.37a1.22,1.22,0,0,0-.57-.43l-2-.67c-1.19-.38-2.43-.77-3.41-1.14-34.38-13-61.65-37.78-71.16-64.61l-.19-.54a1.43,1.43,0,0,1,0-.24,1.65,1.65,0,0,1,1.51-1.59l1.23,0c.27.81.56,1.64.89,2.54a81.49,81.49,0,0,0,12,21c13.47,17.48,33.73,32,57,40.8,2.79,1.06,5.56,2,8.27,2.88l3-1.7c-3.34-1-6.82-2.18-10.33-3.51C237,267.82,217.26,253.72,204.07,236.73ZM196,287.17h-6.59V284H196Zm7.19,0H197.5V284h5.69Zm0-6.89v2.19h-9.73V279h7.16Q201.89,279.66,203.19,280.28Zm-13.78-6.18H191a1.13,1.13,0,0,0,.49-.11c2.06,1.24,4.15,2.43,6.22,3.53h-8.3Zm-8.84-7.44.45.33h-.45Zm0,2.83h3.95c1,.71,2.09,1.42,3.16,2.11h-7.11Zm0,4.61h7.34v3.42h-7.34Zm0,4.92H192v3.45H180.56Zm0,4.95h7.34v3.21h-7.34Zm55.34.35V273.09a.49.49,0,0,1,.08-.25.49.49,0,0,1,.42-.25.5.5,0,0,1,.5.5v11.33s0,0,0,0a.5.5,0,0,1-1,0Zm-14.57-4V263.38a.49.49,0,0,1,.25-.42.49.49,0,0,1,.25-.08.5.5,0,0,1,.5.5v17a.49.49,0,0,1-.08.25.49.49,0,0,1-.42.25.5.5,0,0,1-.5-.5ZM209.2,275.8V253.08a.49.49,0,0,1,0-.15.49.49,0,0,1,.47-.35.5.5,0,0,1,.5.5V276a.48.48,0,0,1,0,.1.49.49,0,0,1-.48.4.5.5,0,0,1-.5-.5Zm-2.77-82.39v2.36H129.62v-2.36Zm-9.64-9.71h5.59v7.21h-5.59Zm-55,0h52.53v7.21H141.75Zm-8.9,0h6.4v7.21h-6.4Zm-10.43,0h7.93v7.21h-7.93Zm-4.13,9.71h8.83v2.36h-8.83Zm.77,4.86h8.61l3.24,5.59h-9.06ZM120.71,279h4.07v3.45h-4.07Zm-28.32-4.32a32.11,32.11,0,0,0,2.42,3.7l.36.4a30.2,30.2,0,0,1-2.78,2.31Zm-4.24-42.42h1.74v3.17H88.15Zm-26.16,0H85.65v3.17H62Zm-4.4,0h1.9v3.17h-1.9Zm-7.19,5.67h2.82v1.53H50.4Zm.73,4h2.51l.9,2.4H52.27Zm4,45.2H52.74v-8.78h2.36Zm0-11.28H52.74v-29h2.36Zm0-40.45H52.74v-3.17h2.36Zm.63,2.5H91.51v1.53H55.72Zm.58,4H91l-.8,2.4h-33Zm33.58,40.71a14.23,14.23,0,0,1-4.79,1.64v-5.94h4.78Zm-26.71,4.49H57.59v-8.78h5.59Zm-2.63-37a1,1,0,0,1,.15.39c.16,1.73.26,2.6.48,4.21a68.41,68.41,0,0,0,2,9.5v11.63H57.59v-29h32.3v16c-1-2.72-1.89-5.51-2.67-8a34.68,34.68,0,0,1-1.05-4.06,3.05,3.05,0,0,0-1.45-2.23,1.22,1.22,0,0,0-1.62.5,1.28,1.28,0,0,0,.41,1.68,1.26,1.26,0,0,1,.21.57,37.1,37.1,0,0,0,1.12,4.31,145.69,145.69,0,0,0,5.05,14v6.24H85.11V262.53c0-4.72-4.92-8.56-11-8.56-4.15,0-7.9,1.81-9.76,4.66-.29-1.39-.53-2.81-.73-4.23-.22-1.59-.31-2.39-.47-4.09a3.42,3.42,0,0,0-.64-1.67,1.25,1.25,0,1,0-2,1.5Zm17.8,36.28a.75.75,0,0,1-1.06,0c-1.89-1.73-8.41-8.39-12.92-21.51a.75.75,0,0,1,1.42-.49c4.4,12.78,10.69,19.22,12.52,20.89A.75.75,0,0,1,78.35,286.43Zm4.26-2.07a11.29,11.29,0,0,1-3.8-1.14v-4.83h3.8Zm0-8.48h-3.8V264c0-3.83-3.53-6.71-8.21-6.71l-.61,0a10.89,10.89,0,0,1,4.16-.82c4.67,0,8.46,2.72,8.46,6.06Zm35.61,11.28H94.13a33.9,33.9,0,0,0,5.2-4.07,21,21,0,0,0,10.91,3.29l.85,0a16.19,16.19,0,0,0,7.14-2.39Zm-17.08-5.87,0,0,.4-.42A65.65,65.65,0,0,0,111,267.05v16.8h-.12A18.42,18.42,0,0,1,101.13,281.3ZM119.83,267h-.37a1.25,1.25,0,0,0-1.25,1.25V281a16,16,0,0,1-5.69,2.63V264.1a122.29,122.29,0,0,0,7.31-19.41Zm.25-32.31a.92.92,0,0,0,0,.1c-3.29,14.81-8.27,27.56-14.34,37l-4.29,5.87h0c-.49.59-1,1.17-1.5,1.71-3.71,4-7.49,6.73-11.23,8l-.1.06H84.25v-.77c4.7-.21,9.76-3.11,14.67-8.44,10-10.8,17.67-30,21.16-51.15Zm10.27,52.5h-9.64V284h9.64Zm0-4.71h-4.07V279h4.07Zm0-4.95h-9.64V274.1h9.64Zm0-5.92h-9.64v-2.11h9.64ZM132,267h-9.64V206.36H132Zm7.38,20.18h-6.5V284h6.5Zm4-8.15v3.45H132.85V279Zm-10.54-1.5V274.1h6.5v3.42Zm8,0V274.1h6.59v3.42Zm6.59,9.65h-6.59V284h6.59Zm8,0h-6.54V284h6.54Zm0-4.71H144.9V279h10.59Zm0-4.95h-6.54V274.1h6.54Zm-4.83-39.24a10.92,10.92,0,0,1,.47-3.13c.73,1.19,1.52,2.4,2.34,3.61h-2.81Zm0,2h3.84l1,1.32,0,0c0,.06,0,.11,0,.16v1h-4.83Zm0,4h4.83v2.55h-4.83Zm0,4h4.83v2.55h-4.83Zm0,4h4.83v2.55h-4.83Zm0,4h4.83V259h-4.83Zm0,4h4.83V263h-4.83Zm0,4h4.83V267h-4.83Zm-5.14-40a87,87,0,0,0,4,7.92,13.75,13.75,0,0,0-1.35,5.87V267h-2.64Zm10,45v2.11H132.85v-2.11Zm4.23-38.13L156.35,228a18.34,18.34,0,0,1,4.34-2.42l1.64,4A12.72,12.72,0,0,0,159.72,231.36Zm8-3.21a12.16,12.16,0,0,0-4,.78l-1.58-3.86a20.05,20.05,0,0,1,5.57-.9Zm1.5.06v-4a20.19,20.19,0,0,1,4.77.84L172.32,229A11.62,11.62,0,0,0,169.17,228.21Zm4.5,1.42,1.68-4.08a18.43,18.43,0,0,1,4.35,2.41l-3.5,3.52A12.58,12.58,0,0,0,173.67,229.63Zm3.57,2.94,3.63-3.65a14.19,14.19,0,0,1,3.33,4.38l-5.11,2.11A13.79,13.79,0,0,0,177.25,232.57ZM185.38,259h-1.85c-1-.8-2-1.59-3-2.37v-.17h4.82Zm0-4h-4.82v-2.55h4.82Zm0-4h-4.82v-2.55h4.82Zm0-4h-4.82V244.3h4.82Zm0-4h-4.82v-1a13.91,13.91,0,0,0-.09-1.53h4.91Zm0-4h-5.14a14.42,14.42,0,0,0-.56-2l5.08-2.1a11.17,11.17,0,0,1,.61,3.58Zm14.54,5.81c.55.66,1.1,1.31,1.64,1.92V267h-1.64Zm3.26,24.92v2c-1.36-.7-2.59-1.35-3.75-2ZM192,233.76a99.35,99.35,0,0,0,6.4,9V267h-3.27c-1-.6-2-1.25-3.13-2Zm9.54-.39a76.36,76.36,0,0,1-9.34-17.27c-.33-.88-.62-1.71-.91-2.6a2.24,2.24,0,0,0-2.15-1.54h-1.51a4.16,4.16,0,0,0-3.89,4.08,4,4,0,0,0,.08.8,1.2,1.2,0,0,0,0,.15l.23.66a80,80,0,0,0,6.4,13.62V264c-.88-.59-1.77-1.2-2.64-1.82V238.28c0-9-9.1-16.61-19.86-16.61a21.89,21.89,0,0,0-13.09,4.26,72.65,72.65,0,0,1-4.35-9.89c-.29-.84-.57-1.68-.82-2.49l0-.11a2.18,2.18,0,0,0-2.1-1.56H146.2a4.09,4.09,0,0,0-3.71,4.08,4.13,4.13,0,0,0,.08.78,1.28,1.28,0,0,0,0,.16l.21.65c.33,1,.71,2,1.19,3.3V267h-9.54V206.36h67.1Zm-67.76-29.5-3.24-5.59h74.31l-2.7,5.59Z"/><rect class="a" x="160.36" y="199.78" width="6.23" height="2.29"/><path class="a" d="M116,312.23v-9.7L96.2,300.87v3l.17.06a13.79,13.79,0,0,1,9.53,12.43,4.21,4.21,0,0,1,0,.72l-.06.6.47-.37A22.68,22.68,0,0,1,115,313C115.71,312.89,116,312.64,116,312.23Z"/><rect class="a" x="152.26" y="199.78" width="6.23" height="2.29"/><polygon class="a" points="208.69 315.42 230.51 302.81 208.69 302.81 208.69 315.42"/><rect class="a" x="192.73" y="199.78" width="6.23" height="2.29"/><path class="a" d="M10,137.77V262.69l27,15.57c2.78-3.17,5.09-8.16,6.73-14.61A135.63,135.63,0,0,0,46.76,246v-.07l-1.45-3a3.83,3.83,0,0,1-.23-.6A3.93,3.93,0,0,1,44.9,241v-4a4.26,4.26,0,0,1,2.2-3.72l.13-.07v-1.87a4.25,4.25,0,0,1,4.25-4.25H91.14a4.25,4.25,0,0,1,4.25,4.25v2.33l.09.08A4.25,4.25,0,0,1,97,237s0,4,0,4,0,.19,0,.3a4,4,0,0,1-.18,1l-1.41,4.24v17.68l0,.09c.69,1.78,1.39,3.43,2.08,4.91l.85,1.71.24-.33c10.6-14.65,17.59-39.24,18.23-64.18v-.06l-3.58-7.16c0-.1-.16-.37-.18-.42a4.12,4.12,0,0,1-.27-1.49v-4.86a4.27,4.27,0,0,1,3.9-4.24l.23,0v-1.8a4.16,4.16,0,0,1-.08-.82,4.65,4.65,0,0,1,.09-.87v-2a4.25,4.25,0,0,1,4.25-4.25h82.46a4.26,4.26,0,0,1,4.25,4.25v5.46l.23,0a4.24,4.24,0,0,1,3.82,4.23v4.86a4.28,4.28,0,0,1-2,3.63l-.06,0-2.72,5.64,0,29.36.05.07C220,252.24,239,265.68,260.85,273.94c3.45,1.31,6.88,2.47,10.21,3.47a4.23,4.23,0,0,1,1.71,1L300,262.69V137.77Z"/><rect class="a" x="136.08" y="199.78" width="6.23" height="2.29"/><polygon class="a" points="155 11.55 15.16 92.28 294.84 92.28 155 11.55"/><polygon class="b" points="112.56 295.89 119.58 297 240.58 297 241.99 296.19 119.46 296.19 112.56 295.89"/><path class="b" d="M258.9,278.77c-23.31-8.83-43.56-23.32-57-40.8a81.49,81.49,0,0,1-12-21c-.33-.89-.62-1.72-.89-2.54l-1.23,0a1.65,1.65,0,0,0-1.51,1.59,1.43,1.43,0,0,0,0,.24l.19.54c9.52,26.83,36.79,51.58,71.16,64.61,1,.37,2.22.76,3.41,1.14l2,.67a1.22,1.22,0,0,1,.57.43l3.49-2C264.46,280.79,261.69,279.83,258.9,278.77Z"/><path class="b" d="M61.58,292.48H90.36a1,1,0,0,1,.34,0h.11l.1,0h.23l28.38,1.21h126.8l7-4H56.72Z"/><path class="b" d="M237.36,285.64a126,126,0,0,1-24.5-7c-21.84-8.83-40.81-23.33-53.43-40.82a83.07,83.07,0,0,1-11.21-21c-.3-.86-.58-1.71-.83-2.52l-1.06,0a1.6,1.6,0,0,0-1.31,1.85l.18.55a85.93,85.93,0,0,0,12.31,23.41,1.22,1.22,0,0,1,.34.47c12.82,17.36,32,31.82,53.95,40.71,1.65.67,3.32,1.3,5,1.89a55.66,55.66,0,0,0,15.2,3.9l.12,0h25.52l.22-.13A93,93,0,0,1,237.36,285.64Z"/><rect class="b" x="132.85" y="283.96" width="6.5" height="3.21"/><path class="b" d="M156.35,228l3.37,3.37a12.72,12.72,0,0,1,2.6-1.8l-1.64-4A18.34,18.34,0,0,0,156.35,228Z"/><path class="b" d="M180.56,256.61c.94.78,1.94,1.58,3,2.37h1.85v-2.55h-4.82Z"/><path class="b" d="M169.17,228.21a11.62,11.62,0,0,1,3.15.77l1.62-3.92a20.19,20.19,0,0,0-4.77-.84Z"/><path class="b" d="M187.65,212h1.51a2.24,2.24,0,0,1,2.15,1.54c.29.9.58,1.72.91,2.6a76.36,76.36,0,0,0,9.34,17.27v-27h-67.1V267H144V220.84c-.48-1.25-.86-2.3-1.19-3.3l-.21-.65a1.28,1.28,0,0,1,0-.16,4.13,4.13,0,0,1-.08-.78,4.09,4.09,0,0,1,3.71-4.08h1.43a2.18,2.18,0,0,1,2.1,1.56l0,.11c.25.81.52,1.65.82,2.49a72.65,72.65,0,0,0,4.35,9.89A21.89,21.89,0,0,1,168,221.67c10.77,0,19.86,7.61,19.86,16.61v23.94c.87.62,1.76,1.23,2.64,1.82V231.27a80,80,0,0,1-6.4-13.62l-.23-.66a1.2,1.2,0,0,1,0-.15,4,4,0,0,1-.08-.8A4.16,4.16,0,0,1,187.65,212Z"/><rect class="b" x="132.85" y="279.02" width="10.54" height="3.45"/><path class="b" d="M167.67,228.15v-4a20.05,20.05,0,0,0-5.57.9l1.58,3.86A12.16,12.16,0,0,1,167.67,228.15Z"/><rect class="b" x="180.56" y="279.02" width="11.39" height="3.45"/><rect class="b" x="132.85" y="269.48" width="22.63" height="2.11"/><rect class="b" x="196.78" y="183.7" width="5.59" height="7.21"/><rect class="b" x="197.5" y="283.96" width="5.69" height="3.21"/><rect class="b" x="129.62" y="193.41" width="76.81" height="2.36"/><rect class="b" x="150.66" y="256.44" width="4.83" height="2.55"/><rect class="b" x="132.85" y="183.7" width="6.4" height="7.21"/><rect class="b" x="141.75" y="183.7" width="52.53" height="7.21"/><rect class="b" x="150.66" y="260.49" width="4.83" height="2.55"/><path class="b" d="M203.19,271.48v-2h-3.75C200.59,270.12,201.83,270.78,203.19,271.48Z"/><rect class="b" x="180.56" y="274.1" width="7.34" height="3.42"/><path class="b" d="M179.71,228a18.43,18.43,0,0,0-4.35-2.41l-1.68,4.08a12.58,12.58,0,0,1,2.54,1.86Z"/><rect class="b" x="189.41" y="283.96" width="6.59" height="3.21"/><path class="b" d="M204.87,198.27H130.56l3.24,5.59h68.37Zm-62.56,3.79h-6.23v-2.29h6.23Zm8.09,0h-6.23v-2.29h6.23Zm8.09,0h-6.23v-2.29h6.23Zm8.09,0h-6.23v-2.29h6.23Zm8.09,0h-6.23v-2.29h6.23Zm8.09,0h-6.23v-2.29h6.23Zm8.09,0h-6.23v-2.29h6.23Zm8.09,0h-6.23v-2.29H199Z"/><rect class="b" x="180.56" y="283.96" width="7.34" height="3.21"/><path class="b" d="M180.56,271.6h7.11c-1.07-.69-2.13-1.4-3.16-2.11h-3.95Z"/><path class="b" d="M203.19,280.28q-1.29-.62-2.57-1.26h-7.16v3.45h9.73Z"/><path class="b" d="M191,274.1h-1.59v3.42h8.3c-2.07-1.11-4.16-2.29-6.22-3.53A1.13,1.13,0,0,1,191,274.1Z"/><rect class="b" x="148.94" y="283.96" width="6.54" height="3.21"/><rect class="b" x="150.66" y="264.53" width="4.83" height="2.45"/><rect class="b" x="148.94" y="274.1" width="6.54" height="3.42"/><path class="b" d="M180.56,267H181l-.45-.33Z"/><rect class="b" x="144.9" y="279.02" width="10.59" height="3.45"/><rect class="b" x="140.85" y="274.1" width="6.59" height="3.42"/><rect class="b" x="150.66" y="248.35" width="4.83" height="2.55"/><path class="b" d="M199.93,244.57V267h1.64v-20.5C201,245.87,200.48,245.23,199.93,244.57Z"/><rect class="b" x="132.85" y="274.1" width="6.5" height="3.42"/><path class="b" d="M150.66,242.8h4.83v-1s0-.1,0-.16l0,0-1-1.32h-3.84Z"/><rect class="b" x="150.66" y="244.3" width="4.83" height="2.55"/><path class="b" d="M184.2,233.31a14.19,14.19,0,0,0-3.33-4.38l-3.63,3.65a13.79,13.79,0,0,1,1.85,2.84Z"/><rect class="b" x="180.56" y="248.35" width="4.82" height="2.55"/><rect class="b" x="180.56" y="244.3" width="4.82" height="2.55"/><path class="b" d="M185.38,240.26h-4.91a13.91,13.91,0,0,1,.09,1.53v1h4.82Z"/><rect class="b" x="180.56" y="252.39" width="4.82" height="2.55"/><path class="b" d="M185.38,238.28a11.17,11.17,0,0,0-.61-3.58l-5.08,2.1a14.42,14.42,0,0,1,.56,2h5.14Z"/><path class="b" d="M198.43,242.74a99.35,99.35,0,0,1-6.4-9V265c1.11.72,2.14,1.37,3.13,2h3.27Z"/><rect class="b" x="150.66" y="252.39" width="4.83" height="2.55"/><path class="b" d="M149.5,232.41a87,87,0,0,1-4-7.92V267h2.64V238.28A13.75,13.75,0,0,1,149.5,232.41Z"/><path class="b" d="M150.66,238.28v.48h2.81c-.82-1.21-1.61-2.42-2.34-3.61A10.92,10.92,0,0,0,150.66,238.28Z"/><rect class="b" x="140.85" y="283.96" width="6.59" height="3.21"/><polygon class="b" points="196.43 309.33 196.44 309.33 196.43 309.33 196.43 309.33"/><rect class="b" x="143.28" y="299.5" width="6.59" height="3.81"/><rect class="b" x="151.37" y="299.5" width="15.49" height="3.81"/><rect class="b" x="155.42" y="304.81" width="6.59" height="3.95"/><rect class="b" x="163.51" y="304.81" width="15.49" height="3.95"/><rect class="b" x="176.46" y="299.5" width="6.59" height="3.81"/><rect class="b" x="168.36" y="299.5" width="6.59" height="3.81"/><rect class="b" x="184.55" y="299.5" width="6.59" height="3.81"/><rect class="b" x="57.59" y="278.39" width="5.59" height="8.78"/><path class="b" d="M84.25,287.42h4.32l.1-.06c3.74-1.3,7.52-4,11.23-8,.51-.55,1-1.12,1.5-1.71h0l4.29-5.87c6.07-9.4,11-22.15,14.34-37a.92.92,0,0,1,0-.1v-7.61c-3.48,21.19-11.2,40.34-21.16,51.15-4.91,5.33-10,8.23-14.67,8.44Z"/><rect class="b" x="55.72" y="237.94" width="35.78" height="1.53"/><path class="b" d="M85.11,284.32a14.23,14.23,0,0,0,4.79-1.64v-4.29H85.11Z"/><rect class="b" x="88.15" y="232.27" width="1.74" height="3.17"/><rect class="b" x="61.99" y="232.27" width="23.66" height="3.17"/><rect class="b" x="57.59" y="232.27" width="1.9" height="3.17"/><polygon class="b" points="90.24 244.37 91.03 241.97 56.31 241.97 57.2 244.37 90.24 244.37"/><path class="b" d="M62.55,248.65a3.42,3.42,0,0,1,.64,1.67c.15,1.7.25,2.5.47,4.09.2,1.42.44,2.84.73,4.23C66.25,255.78,70,254,74.14,254c6,0,11,3.84,11,8.56v13.35h4.78v-6.24a145.69,145.69,0,0,1-5.05-14,37.1,37.1,0,0,1-1.12-4.31,1.26,1.26,0,0,0-.21-.57,1.28,1.28,0,0,1-.41-1.68,1.22,1.22,0,0,1,1.62-.5,3.05,3.05,0,0,1,1.45,2.23,34.68,34.68,0,0,0,1.05,4.06c.78,2.44,1.69,5.23,2.67,8v-16H57.59v29h5.59V264.25a68.41,68.41,0,0,1-2-9.5c-.23-1.61-.32-2.48-.48-4.21a1,1,0,0,0-.15-.39,1.25,1.25,0,1,1,2-1.5Z"/><path class="b" d="M210.17,276.07a.48.48,0,0,0,0-.1V253.08a.5.5,0,0,0-.5-.5.49.49,0,0,0-.47.35.49.49,0,0,0,0,.15V276a.5.5,0,0,0,.5.5A.49.49,0,0,0,210.17,276.07Z"/><path class="b" d="M222.26,280.67a.49.49,0,0,0,.08-.25v-17a.5.5,0,0,0-.5-.5.49.49,0,0,0-.25.08.49.49,0,0,0-.25.42v17a.5.5,0,0,0,.5.5A.49.49,0,0,0,222.26,280.67Z"/><path class="b" d="M236.89,284.46s0,0,0,0V273.09a.5.5,0,0,0-.5-.5.49.49,0,0,0-.42.25.49.49,0,0,0-.08.25v11.33a.5.5,0,0,0,1,0Z"/><rect class="c" x="180.5" y="304.81" width="14.69" height="3.95"/><rect class="c" x="139.23" y="304.81" width="14.69" height="3.95"/><rect class="c" x="133.66" y="299.5" width="8.12" height="3.81"/><rect class="c" x="192.64" y="299.5" width="10.54" height="3.81"/><rect class="c" x="52.74" y="232.27" width="2.36" height="3.17"/><path class="c" d="M94.81,278.39a32.11,32.11,0,0,1-2.42-3.7v6.41a30.2,30.2,0,0,0,2.78-2.31Z"/><rect class="c" x="50.4" y="237.94" width="2.82" height="1.53"/><polygon class="c" points="130.91 203.86 127.67 198.27 119.06 198.27 121.85 203.86 130.91 203.86"/><rect class="c" x="52.74" y="246.87" width="2.36" height="29.02"/><polygon class="c" points="53.64 241.97 51.13 241.97 52.27 244.37 54.54 244.37 53.64 241.97"/><rect class="c" x="118.29" y="193.41" width="8.83" height="2.36"/><rect class="c" x="122.33" y="206.36" width="9.64" height="60.62"/><rect class="c" x="52.74" y="278.39" width="2.36" height="8.78"/><rect class="c" x="120.71" y="279.02" width="4.07" height="3.45"/><path class="c" d="M110.23,286.38a21,21,0,0,1-10.91-3.29,33.9,33.9,0,0,1-5.2,4.07h24.08V284a16.19,16.19,0,0,1-7.14,2.39Z"/><rect class="c" x="120.71" y="283.96" width="9.64" height="3.21"/><rect class="c" x="122.42" y="183.7" width="7.93" height="7.21"/><path class="c" d="M110.9,283.86H111v-16.8a65.65,65.65,0,0,1-9.46,13.79l-.4.42,0,0A18.42,18.42,0,0,0,110.9,283.86Z"/><path class="c" d="M112.53,283.62a16,16,0,0,0,5.69-2.63V268.23a1.25,1.25,0,0,1,1.25-1.25h.37V244.69a122.29,122.29,0,0,1-7.31,19.41Z"/><rect class="c" x="120.71" y="274.1" width="9.64" height="3.42"/><rect class="c" x="120.71" y="269.48" width="9.64" height="2.11"/><rect class="c" x="126.28" y="279.02" width="4.07" height="3.45"/><path class="c" d="M78.81,283.22a11.29,11.29,0,0,0,3.8,1.14v-6h-3.8Z"/><path class="c" d="M74.14,256.47a10.89,10.89,0,0,0-4.16.82l.61,0c4.68,0,8.21,2.89,8.21,6.71v11.9h3.8V262.53C82.61,259.19,78.81,256.47,74.14,256.47Z"/><path class="c" d="M65.79,264.48a.75.75,0,0,0-1.42.49c4.52,13.12,11,19.78,12.92,21.51a.75.75,0,0,0,1-1.11C76.48,283.71,70.19,277.27,65.79,264.48Z"/><path class="c" d="M155,0,0,89.49v179L155,358l155-89.49v-179Zm91.31,293.69-4.33,2.5-1.4.81-4.33,2.5H205.69v17.21c0,.15,0,.29,0,.43l-2.37,1.37a11.19,11.19,0,0,1-.14-1.8v-11.9h-6.5v4.48a.49.49,0,0,1,0,.11.46.46,0,0,1,0,.11.75.75,0,0,1-.75.75H184.55v4.66a.75.75,0,0,1-1.5,0v-4.66H168.36v4h11.79a.75.75,0,0,1,0,1.5H155.88a.75.75,0,0,1,0-1.5h11v-4H151.37v4.66a.75.75,0,0,1-1.5,0v-4.66H138.48a.75.75,0,0,1-.75-.75.49.49,0,0,1,0-.11.47.47,0,0,1,0-.11v-4.48h-4.07v12.61a1.24,1.24,0,0,1,0,.25,7.63,7.63,0,0,1-5.93,5.9,17.42,17.42,0,0,0-6.62,3.26l-2.31-1.33a19.89,19.89,0,0,1,8.27-4.34,5.23,5.23,0,0,0,4.12-3.89V299.5h-9.64v12.42a6.19,6.19,0,0,1-5.2,6.16,17.28,17.28,0,0,0-5.8,2.66l-2.35-1.36a19.79,19.79,0,0,1,7.56-3.73,3.78,3.78,0,0,0,3.29-3.73V299.44L93.2,295.37V305c0,.62.06,1,1.34,1.24l.07,0a11,11,0,0,1,8.3,10s0,0,0,.07l-2.78-1.6A8.45,8.45,0,0,0,94,308.68,3.64,3.64,0,0,1,90.7,305l0-10H65.91l-4.33-2.5-4.86-2.81-6.48-3.74V263c-2.3,7.53-5.3,13.46-9,17.72l-2.21-1.28c5-5.67,8.87-14.9,11.17-27V245.9L48,241.16a1.27,1.27,0,0,1-.08-.39v-4.09a1.25,1.25,0,0,1,1.25-1.25h1.08V231a1.25,1.25,0,0,1,1.25-1.25H91.14A1.25,1.25,0,0,1,92.39,231v4.42h.37A1.25,1.25,0,0,1,94,236.69v4a1.2,1.2,0,0,1-.06.45l-1.56,4.71v23.31a38.36,38.36,0,0,0,4.35,7.68l.2.22.33-.35c12.92-14,22-42.66,22.56-71.28l-3.94-7.89,0-.05a1.33,1.33,0,0,1-.08-.39v-4.91a1.25,1.25,0,0,1,1.25-1.25h2.88v-8.46a1.25,1.25,0,0,1,1.25-1.25h82.46a1.25,1.25,0,0,1,1.25,1.25v8.46h2.8a1.25,1.25,0,0,1,1.25,1.25V197a1.25,1.25,0,0,1-1.25,1.25h0l-3.58,7.43v31c13.2,17,33,31.1,55.72,39.71,3.52,1.33,7,2.51,10.33,3.51l-3,1.7-3.49,2L257.83,287l-.22.13-4.33,2.5Zm-37.63,21.73v-12.6h21.83Zm64.08-37a4.23,4.23,0,0,0-1.71-1c-3.32-1-6.76-2.16-10.21-3.47-21.8-8.26-40.88-21.71-53.73-37.87l-.05-.07,0-29.36,2.72-5.64.06,0a4.28,4.28,0,0,0,2-3.63v-4.86a4.24,4.24,0,0,0-3.82-4.23l-.23,0v-5.46a4.26,4.26,0,0,0-4.25-4.25H121.17a4.25,4.25,0,0,0-4.25,4.25v2a4.65,4.65,0,0,0-.09.87,4.16,4.16,0,0,0,.08.82v1.8l-.23,0a4.27,4.27,0,0,0-3.9,4.24v4.86a4.12,4.12,0,0,0,.27,1.49s.13.32.18.42l3.58,7.16v.06c-.64,24.94-7.63,49.53-18.23,64.18l-.24.33-.85-1.71c-.69-1.48-1.39-3.13-2.08-4.91l0-.09V246.58l1.41-4.24a4,4,0,0,0,.18-1c0-.11,0-.22,0-.3s0-4,0-4a4.25,4.25,0,0,0-1.53-3.26l-.09-.08v-2.33a4.25,4.25,0,0,0-4.25-4.25H51.49a4.25,4.25,0,0,0-4.25,4.25v1.87l-.13.07A4.26,4.26,0,0,0,44.9,237v4a3.93,3.93,0,0,0,.19,1.23,3.83,3.83,0,0,0,.23.6l1.45,3V246a135.63,135.63,0,0,1-3.05,17.68c-1.65,6.45-4,11.45-6.73,14.61L10,262.69V137.77H300V262.69ZM96.37,304l-.17-.06v-3L116,302.54v9.7c0,.41-.31.66-1,.82a22.68,22.68,0,0,0-8.72,4.28l-.47.37.06-.6a4.21,4.21,0,0,0,0-.72A13.79,13.79,0,0,0,96.37,304ZM15.16,92.28,155,11.55,294.84,92.28Z"/><path class="b" d="M64.34,104.24h6.93l9.84,16.09h.07V104.24h5.1v23.15H79.61l-10.1-16.48h-.06v16.48h-5.1Z"/><path class="b" d="M89.75,115.81a13.08,13.08,0,0,1,.93-5,11,11,0,0,1,2.6-3.84,11.46,11.46,0,0,1,4-2.44,15.15,15.15,0,0,1,10,0,11.46,11.46,0,0,1,4,2.44,11,11,0,0,1,2.6,3.84,14.07,14.07,0,0,1,0,10.07,11.05,11.05,0,0,1-2.6,3.84,11.44,11.44,0,0,1-4,2.44,15.14,15.14,0,0,1-10,0,11.44,11.44,0,0,1-4-2.44,11.05,11.05,0,0,1-2.6-3.84A13.07,13.07,0,0,1,89.75,115.81Z"/><path class="b" d="M118.2,104.24h7.65a21.86,21.86,0,0,1,5.28.62,12.1,12.1,0,0,1,4.37,2,9.86,9.86,0,0,1,3,3.61,12.12,12.12,0,0,1,1.1,5.4,11,11,0,0,1-1.06,5,10.66,10.66,0,0,1-2.86,3.6,12.65,12.65,0,0,1-4.15,2.21,16.12,16.12,0,0,1-4.94.75H118.2Z"/><path class="b" d="M143.21,104.24h15.73v4.71H148.31v4.32h10V118h-10v4.71h11.22v4.71H143.21Z"/><path class="b" d="M178.76,110.26a5,5,0,0,0-1.85-1.41,6.15,6.15,0,0,0-2.53-.49,6.34,6.34,0,0,0-4.79,2.11,7.22,7.22,0,0,0-1.41,2.37,9,9,0,0,0,0,6,7.43,7.43,0,0,0,1.39,2.35,6.29,6.29,0,0,0,2.08,1.55,6,6,0,0,0,2.57.56,5.75,5.75,0,0,0,2.78-.65,5.54,5.54,0,0,0,2-1.83l4.25,3.17a8.85,8.85,0,0,1-3.73,3,11.53,11.53,0,0,1-4.64,1,14.26,14.26,0,0,1-5-.85,11.44,11.44,0,0,1-4-2.44,11.05,11.05,0,0,1-2.6-3.84,14.07,14.07,0,0,1,0-10.07,11,11,0,0,1,2.6-3.84,11.46,11.46,0,0,1,4-2.44,14.27,14.27,0,0,1,5-.85,12.32,12.32,0,0,1,2,.18,11.06,11.06,0,0,1,2.09.57,9.33,9.33,0,0,1,2,1,7.9,7.9,0,0,1,1.7,1.6Z"/><path class="b" d="M185.1,115.81a8.48,8.48,0,0,0,.51,3,6.83,6.83,0,0,0,1.45,2.35,6.63,6.63,0,0,0,2.27,1.55,8.16,8.16,0,0,0,5.92,0,6.64,6.64,0,0,0,2.27-1.55,6.86,6.86,0,0,0,1.45-2.35,9,9,0,0,0,0-6,6.83,6.83,0,0,0-1.45-2.37,6.65,6.65,0,0,0-2.27-1.55,8.16,8.16,0,0,0-5.92,0,6.64,6.64,0,0,0-2.27,1.55,6.81,6.81,0,0,0-1.45,2.37A8.52,8.52,0,0,0,185.1,115.81Z"/><path class="b" d="M203.28,104.24h6.93l9.84,16.09h.07V104.24h5.1v23.15h-6.67l-10.1-16.48h-.06v16.48h-5.1Z"/><path class="b" d="M230.13,104.24h15.53v4.71H235.23v4.71h9.65v4.71h-9.65v9h-5.1Z"/><path class="c" d="M70.9,152.52h5.36a6.48,6.48,0,0,1,1.53.18,3.94,3.94,0,0,1,1.35.6A3.11,3.11,0,0,1,80.48,156a2.82,2.82,0,0,1-.66,1.92A3.67,3.67,0,0,1,78.09,159v0a3.6,3.6,0,0,1,2.14,1,3,3,0,0,1,.83,2.23,3.71,3.71,0,0,1-.45,1.89,3.58,3.58,0,0,1-1.17,1.23,5,5,0,0,1-1.67.67,9,9,0,0,1-1.91.2h-5Zm2.45,5.59h2.17a3,3,0,0,0,1.86-.49,1.63,1.63,0,0,0,.64-1.38,1.41,1.41,0,0,0-.66-1.32,4.2,4.2,0,0,0-2.06-.39h-2Zm0,6.1h2.19a8.15,8.15,0,0,0,1-.07,3.31,3.31,0,0,0,1-.28,2,2,0,0,0,.76-.62,1.79,1.79,0,0,0,.3-1.09,1.6,1.6,0,0,0-.74-1.51,4.58,4.58,0,0,0-2.23-.43H73.35Z"/><path class="c" d="M94.42,161.22a5.65,5.65,0,0,1-.43,2.24,5,5,0,0,1-1.16,1.7,5.13,5.13,0,0,1-1.75,1.08,6.54,6.54,0,0,1-4.39,0,5.23,5.23,0,0,1-1.76-1.08,4.85,4.85,0,0,1-1.16-1.7,5.76,5.76,0,0,1-.42-2.24v-8.7H85.8v8.6a4.66,4.66,0,0,0,.16,1.19,2.92,2.92,0,0,0,.51,1.06,2.64,2.64,0,0,0,1,.76,3.83,3.83,0,0,0,2.93,0,2.65,2.65,0,0,0,1-.76,2.92,2.92,0,0,0,.51-1.06,4.69,4.69,0,0,0,.16-1.19v-8.6h2.45Z"/><path class="c" d="M97.33,152.52h4.87a10.81,10.81,0,0,1,2.7.35,7,7,0,0,1,2.45,1.16,6.05,6.05,0,0,1,1.77,2.12,7,7,0,0,1,.68,3.25,6.63,6.63,0,0,1-.68,3.11,6.36,6.36,0,0,1-1.77,2.14,7.39,7.39,0,0,1-2.45,1.23,9.56,9.56,0,0,1-2.7.4H97.33Zm4.48,11.61a8.3,8.3,0,0,0,1.9-.22,5,5,0,0,0,1.72-.76,4,4,0,0,0,1.25-1.45,4.89,4.89,0,0,0,.49-2.31,5.21,5.21,0,0,0-.49-2.41,3.9,3.9,0,0,0-1.25-1.46,4.67,4.67,0,0,0-1.72-.72,9.53,9.53,0,0,0-1.9-.19h-2v9.51Z"/><path class="c" d="M116,152.52h2.12L124,166.27h-2.8L120,163.12h-6l-1.24,3.15H110Zm3.11,8.5L117,155.44,114.84,161Z"/><path class="c" d="M125.4,152.52h4.48a9.8,9.8,0,0,1,2.14.21,4.46,4.46,0,0,1,1.63.7,3.25,3.25,0,0,1,1,1.24,4.13,4.13,0,0,1,.37,1.83,3.94,3.94,0,0,1-.43,1.92,3.46,3.46,0,0,1-1.16,1.25,5.05,5.05,0,0,1-1.7.69,9.55,9.55,0,0,1-2.06.21h-1.88v5.69H125.4Zm4.15,6a7.23,7.23,0,0,0,1.15-.09,3.17,3.17,0,0,0,1-.31,1.78,1.78,0,0,0,.68-.61,1.83,1.83,0,0,0,.25-1,1.63,1.63,0,0,0-.92-1.57,2.89,2.89,0,0,0-1-.28,8.75,8.75,0,0,0-1.1-.07h-1.79v3.94Z"/><path class="c" d="M137.24,152.52h9.11v2.14h-6.66v3.5H146v2.06h-6.31v3.88h7v2.17h-9.46Z"/><path class="c" d="M156.1,155.4a3,3,0,0,0-1.1-.84,3.27,3.27,0,0,0-1.43-.34,3.5,3.5,0,0,0-.85.11,2.62,2.62,0,0,0-.78.33,1.83,1.83,0,0,0-.57.58,1.61,1.61,0,0,0-.22.86,1.54,1.54,0,0,0,.19.8,1.76,1.76,0,0,0,.53.56,3.64,3.64,0,0,0,.83.41q.48.18,1.07.35t1.37.49a5.32,5.32,0,0,1,1.3.72,3.56,3.56,0,0,1,1,1.13,3.44,3.44,0,0,1,.38,1.69,4.32,4.32,0,0,1-.41,1.93,4,4,0,0,1-1.09,1.37,4.64,4.64,0,0,1-1.59.82,6.71,6.71,0,0,1-1.92.27,7.22,7.22,0,0,1-2.62-.5,5.06,5.06,0,0,1-2.1-1.47l1.75-1.63a3.51,3.51,0,0,0,1.35,1.11,3.8,3.8,0,0,0,1.66.41,3.75,3.75,0,0,0,.87-.11,2.32,2.32,0,0,0,.81-.36,2,2,0,0,0,.58-.63,1.83,1.83,0,0,0,.22-.94,1.53,1.53,0,0,0-.25-.9,2.26,2.26,0,0,0-.68-.62,4.91,4.91,0,0,0-1-.46l-1.22-.41a11.86,11.86,0,0,1-1.24-.47,4.12,4.12,0,0,1-1.12-.72,3.46,3.46,0,0,1-.81-1.1,3.75,3.75,0,0,1-.31-1.62,3.56,3.56,0,0,1,.44-1.81,3.87,3.87,0,0,1,1.15-1.25,5.11,5.11,0,0,1,1.61-.74,7,7,0,0,1,1.83-.24,6.55,6.55,0,0,1,2.13.37,5.2,5.2,0,0,1,1.87,1.11Z"/><path class="c" d="M162.7,154.66h-4.21v-2.14h10.87v2.14h-4.21v11.61H162.7Z"/><path class="c" d="M175.24,159.4a3.31,3.31,0,0,1,.27-1.34,3.5,3.5,0,0,1,1.83-1.83,3.44,3.44,0,0,1,2.68,0,3.5,3.5,0,0,1,1.83,1.83,3.44,3.44,0,0,1,0,2.68,3.49,3.49,0,0,1-1.83,1.82,3.44,3.44,0,0,1-2.68,0,3.49,3.49,0,0,1-1.83-1.82A3.31,3.31,0,0,1,175.24,159.4Z"/><path class="c" d="M189.72,164.13l5.3-5.2a6.22,6.22,0,0,0,1-1.25,2.75,2.75,0,0,0,.38-1.45,2,2,0,0,0-.63-1.54,2.24,2.24,0,0,0-1.56-.57,2,2,0,0,0-1.59.67,3,3,0,0,0-.74,1.68l-2.27-.35a4.27,4.27,0,0,1,.49-1.57,4.42,4.42,0,0,1,1-1.24,4.52,4.52,0,0,1,1.41-.83,5,5,0,0,1,1.76-.3,5.86,5.86,0,0,1,1.72.25,4.36,4.36,0,0,1,1.47.77,3.7,3.7,0,0,1,1.4,3,4.21,4.21,0,0,1-.17,1.23,4.87,4.87,0,0,1-.48,1.08,6.58,6.58,0,0,1-.7,1,10.87,10.87,0,0,1-.86.88l-4,3.79h6.19v2.14h-9.14Z"/><path class="c" d="M211,159.4a13,13,0,0,1-.32,3,7.16,7.16,0,0,1-.93,2.27,4.34,4.34,0,0,1-1.51,1.44,4.16,4.16,0,0,1-2.07.5,4.22,4.22,0,0,1-2.08-.5,4.38,4.38,0,0,1-1.53-1.44,7,7,0,0,1-.94-2.27,14.3,14.3,0,0,1,0-6,7,7,0,0,1,.94-2.27,4.38,4.38,0,0,1,1.53-1.44,4.22,4.22,0,0,1,2.08-.5,4.16,4.16,0,0,1,2.07.5,4.34,4.34,0,0,1,1.51,1.44,7.15,7.15,0,0,1,.93,2.27A13,13,0,0,1,211,159.4Zm-2.39,0q0-.72-.09-1.63a8.21,8.21,0,0,0-.35-1.73,3.83,3.83,0,0,0-.75-1.37,1.6,1.6,0,0,0-1.26-.55,1.62,1.62,0,0,0-1.28.55,3.81,3.81,0,0,0-.75,1.37,8.67,8.67,0,0,0-.36,1.73,13.8,13.8,0,0,0,0,3.26,8.26,8.26,0,0,0,.36,1.71,3.83,3.83,0,0,0,.75,1.35,1.62,1.62,0,0,0,1.28.55,1.6,1.6,0,0,0,1.26-.55,3.84,3.84,0,0,0,.75-1.35,7.84,7.84,0,0,0,.35-1.71Q208.61,160.12,208.61,159.4Z"/><path class="c" d="M217.49,155.36l-2.72,2.23L213.41,156l4.29-3.46h2.12v13.75h-2.33Z"/><path class="c" d="M230.9,154.64H224v-2.12h9.66v1.83l-6.2,11.92h-2.71Z"/></svg>